<?xml version="1.0" encoding="utf-8"?>
<!-- Generator: Adobe Illustrator 23.0.1, SVG Export Plug-In . SVG Version: 6.00 Build 0)  -->
<svg version="1.1" xmlns="http://www.w3.org/2000/svg" xmlns:xlink="http://www.w3.org/1999/xlink" x="0px" y="0px"
	 viewBox="0 0 1920 1080" style="enable-background:new 0 0 1920 1080;" xml:space="preserve">
<style type="text/css">
	.st0{fill:#9B2FDA;}
	.st1{fill:#4B1A6B;}
	.st2{fill:#3D145A;}
	.st3{fill:#FF5EFF;}
</style>
<g id="Camada_1">
	<rect x="-3" y="-2" class="st0" width="1931" height="1088"/>
</g>
<g id="Camada_2">
	<path class="st1" d="M731,1089c0,0,392-59,392-297c-2-273,67-495,431-517S1928,7,1928,7v1079L731,1089z"/>
</g>
<g id="Camada_4">
	<path class="st2" d="M754,1085c0,0,179-17,309-157c63-73,54.9-138.1,62-230c7-90,18-118,18-118s114,123,136,279s10,229,10,229
		L754,1085z"/>
</g>
<g id="Camada_6">
	<g>
		<path class="st3" d="M883.9,807.4l264.6-153.8L885.1,513.4L883.9,807.4z M904.9,546.6l202.5,107.8L904.1,772.6L904.9,546.6z"/>
		<path class="st3" d="M1258.7,444H732.3c-29.9,0-54.3,24.4-54.3,54.3V699H351.8c-19.6,0-35.6,16-35.6,35.6v220.6
			c0,19.6,16,35.6,35.6,35.6h363.6c19.6,0,35.6-16,35.6-35.6V872h507.7c29.9,0,54.3-24.4,54.3-54.3V498.3
			C1313,468.4,1288.6,444,1258.7,444z M741,955.2c0,14.1-11.5,25.6-25.6,25.6H351.8c-14.1,0-25.6-11.5-25.6-25.6V734.6
			c0-14.1,11.5-25.6,25.6-25.6H678v108.7c0,29.9,24.4,54.3,54.3,54.3h8.7V955.2z M741,852h-8.7c-18.9,0-34.3-15.4-34.3-34.3V709
			h17.4c14.1,0,25.6,11.5,25.6,25.6V852z M1293,817.7c0,18.9-15.4,34.3-34.3,34.3H751V734.6c0-19.6-16-35.6-35.6-35.6H698V498.3
			c0-18.9,15.4-34.3,34.3-34.3h526.4c18.9,0,34.3,15.4,34.3,34.3V817.7z"/>
		<path class="st3" d="M1642.7,459.2v-90.5c0-8.8-7.2-16-16-16h-149.1c-8.8,0-16,7.2-16,16v90.5c0,8.8,7.2,16,16,16h149.1
			C1635.5,475.3,1642.7,468.1,1642.7,459.2z M1468.5,459.2v-90.5c0-5,4.1-9,9-9h149.1c5,0,9,4.1,9,9v90.5c0,5-4.1,9-9,9h-149.1
			C1472.6,468.3,1468.5,464.2,1468.5,459.2z"/>
		<path class="st3" d="M1519.8,457.5l77-44.8l-76.7-40.8L1519.8,457.5z M1527.1,383.6l55.3,29.4l-55.6,32.3L1527.1,383.6z"/>
		<path class="st3" d="M403.7,346.5l-0.4,98.3l88.5-51.4L403.7,346.5z M413.6,363.1l57.6,30.7l-57.9,33.6L413.6,363.1z"/>
		<path class="st3" d="M357.8,463.6h164.6c10.4,0,18.9-8.5,18.9-18.9v-99.9c0-10.4-8.5-18.9-18.9-18.9H357.8
			c-10.4,0-18.9,8.5-18.9,18.9v99.9C338.9,455.1,347.4,463.6,357.8,463.6z M348.9,344.9c0-4.9,4-8.9,8.9-8.9h164.6
			c4.9,0,8.9,4,8.9,8.9v99.9c0,4.9-4,8.9-8.9,8.9H357.8c-4.9,0-8.9-4-8.9-8.9V344.9z"/>
		<path class="st3" d="M458.5,944.8L635.4,842l-176.2-93.8L458.5,944.8z M469.2,764.8l145.7,77.5l-146.3,85L469.2,764.8z"/>
		<path class="st3" d="M1776.2,638h-259.1c-14.8,0-26.8,12-26.8,26.8V822c0,14.8,12,26.8,26.8,26.8h259.1c14.8,0,26.8-12,26.8-26.8
			V664.8C1803,650,1791,638,1776.2,638z M1793,822c0,9.3-7.5,16.8-16.8,16.8h-259.1c-9.3,0-16.8-7.5-16.8-16.8V664.8
			c0-9.3,7.5-16.8,16.8-16.8h259.1c9.3,0,16.8,7.5,16.8,16.8V822z"/>
		<path class="st3" d="M1591.7,817.1l130.5-75.8l-129.9-69.1L1591.7,817.1z M1602.2,688.7l99.4,52.9l-99.9,58L1602.2,688.7z"/>
	</g>
</g>
</svg>
