<?xml version="1.0" encoding="utf-8"?>
<!-- Generator: Adobe Illustrator 23.0.1, SVG Export Plug-In . SVG Version: 6.00 Build 0)  -->
<svg version="1.1" xmlns="http://www.w3.org/2000/svg" xmlns:xlink="http://www.w3.org/1999/xlink" x="0px" y="0px"
	 viewBox="0 0 1920 1080" style="enable-background:new 0 0 1920 1080;" xml:space="preserve">
<style type="text/css">
	.st0{fill:#9B2FDA;}
	.st1{fill:#4B1A6B;}
	.st2{fill:#3D145A;}
	.st3{fill:#FF5EFF;}
</style>
<g id="Camada_1">
	
		<image style="overflow:visible;" width="1920" height="1080" xlink:href="4C0B7709.jpg"  transform="matrix(0.9999 0 0 0.9999 0 0)">
	</image>
</g>
<g id="Camada_3">
	<rect x="-3" y="-2" class="st0" width="1931" height="1088"/>
</g>
<g id="Camada_2">
	<path class="st1" d="M731,1089c0,0,392-59,392-297c-2-273,67-495,431-517S1928,7,1928,7v1079L731,1089z"/>
</g>
<g id="Camada_4">
	<path class="st2" d="M754,1085c0,0,179-17,309-157c63-73,54.9-138.1,62-230c7-90,18-118,18-118s114,123,136,279s10,229,10,229
		L754,1085z"/>
</g>
<g id="Camada_6">
	<path class="st3" d="M365.2,672H33.1l31.3-48.6L35.5,572h328.7l39.7,51.5L365.2,672z M45.9,665h315.9l33.2-41.5L360.8,579H47.5
		l25.1,44.6L45.9,665z"/>
	<path class="st3" d="M748.3,679H397.1l39.1-54.9L393.8,566h353.6l44.8,58.1L748.3,679z M435.9,659h302.8l28.1-35.1L737.6,586H433.2
		l27.7,37.9L435.9,659z"/>
	<path class="st3" d="M1124.3,679H773.1l39.1-54.9L769.8,566h353.6l44.8,58.1L1124.3,679z M811.9,659h302.8l28.1-35.1l-29.2-37.9
		H809.2l27.7,37.9L811.9,659z"/>
	<path class="st3" d="M1498.3,679h-351.2l39.1-54.9l-42.3-58.1h353.6l44.8,58.1L1498.3,679z M1185.9,659h302.8l28.1-35.1l-29.2-37.9
		h-304.4l27.7,37.9L1185.9,659z"/>
	<path class="st3" d="M1871.2,672.5h-335.5l34.5-48.5l-37.6-51.5h337.6L1910,624L1871.2,672.5z M1549.3,665.5h318.5L1901,624
		l-34.3-44.5h-320.4l32.4,44.5L1549.3,665.5z"/>
	<g>
		<path class="st3" d="M757,408c0,82.3-133.1,149.8-149,216c-19.3-67.8-149-133.7-149-216s66.7-149,149-149S757,325.7,757,408z"/>
		<path class="st3" d="M608,626l-0.5-1.8c-8.3-29.3-37.3-58.1-67.9-88.6c-39.9-39.7-81.1-80.8-81.1-127.5
			c0-82.4,67.1-149.5,149.5-149.5S757.5,325.6,757.5,408c0,46.4-41.5,87.5-81.6,127.3c-31.1,30.8-60.4,59.9-67.4,88.8L608,626z
			 M608,259.5c-81.9,0-148.5,66.6-148.5,148.5c0,46.3,41.1,87.2,80.9,126.8c30.1,30,58.6,58.3,67.6,87.3
			c7.7-28.6,36.6-57.2,67.2-87.5c40-39.6,81.3-80.6,81.3-126.6C756.5,326.2,689.9,259.5,608,259.5z"/>
	</g>
	<path class="st3" d="M225.2,647.8l-3.6-12.8c-5.1-18.1-23.5-36.3-42.9-55.7c-26.1-26-53.2-52.9-53.2-84.3
		c0-54.8,44.6-99.4,99.4-99.4s99.4,44.6,99.4,99.4c0,31.2-27.2,58.1-53.5,84.2c-19.7,19.5-38.3,37.9-42.5,55.7L225.2,647.8z
		 M224.9,402.5c-51,0-92.4,41.5-92.4,92.4c0,28.5,26,54.4,51.1,79.4c17,16.9,33.2,33,41.2,49.6c7.6-16.5,24-32.7,41.1-49.7
		c25.3-25.1,51.4-51,51.4-79.3C317.4,444,275.9,402.5,224.9,402.5z"/>
	<g>
		<path class="st3" d="M1197,841c0-82.3,133.1-149.8,149-216c19.3,67.8,149,133.7,149,216s-66.7,149-149,149S1197,923.3,1197,841z"
			/>
		<path class="st3" d="M1346,990.5c-82.4,0-149.5-67.1-149.5-149.5c0-46.4,41.5-87.5,81.6-127.3c31.1-30.8,60.4-59.9,67.4-88.8
			l0.4-1.9l0.5,1.8c8.3,29.3,37.3,58.1,67.9,88.6c39.9,39.7,81.1,80.8,81.1,127.5C1495.5,923.4,1428.4,990.5,1346,990.5z
			 M1346,626.9c-7.7,28.6-36.6,57.2-67.2,87.5c-40,39.6-81.3,80.6-81.3,126.6c0,81.9,66.6,148.5,148.5,148.5s148.5-66.6,148.5-148.5
			c0-46.3-41.1-87.2-80.9-126.8C1383.5,684.2,1355.1,655.9,1346,626.9z"/>
	</g>
	<path class="st3" d="M862,763.2c0-50.7,82-92.4,91.8-133.1c11.9,41.8,91.8,82.4,91.8,133.1s-41.1,91.8-91.8,91.8
		S862,813.9,862,763.2z"/>
	<path class="st3" d="M1723.8,858.5c-52.6,0-95.3-42.8-95.3-95.3c0-29.9,26.1-55.8,51.3-80.7c18.8-18.7,36.6-36.3,40.7-53.2l3.1-13
		l3.6,12.8c4.9,17.3,22.4,34.7,41,53.2c25.1,24.9,51,50.7,51,80.9C1819.2,815.7,1776.4,858.5,1723.8,858.5z M1724,640
		c-7.3,15.7-22.9,31.1-39.3,47.4c-24.2,24-49.2,48.8-49.2,75.8c0,48.7,39.6,88.3,88.3,88.3c48.7,0,88.3-39.6,88.3-88.3
		c0-27.2-24.9-52-48.9-75.9C1747.1,671.2,1731.7,655.8,1724,640z"/>
</g>
</svg>
