<?xml version="1.0" encoding="utf-8"?>
<!-- Generator: Adobe Illustrator 23.0.1, SVG Export Plug-In . SVG Version: 6.00 Build 0)  -->
<svg version="1.1" id="Camada_1" xmlns="http://www.w3.org/2000/svg" xmlns:xlink="http://www.w3.org/1999/xlink" x="0px" y="0px"
	 viewBox="0 0 1080 1080" style="enable-background:new 0 0 1080 1080;" xml:space="preserve">
<style type="text/css">
	.st0{fill:#DBDBDB;}
	.st1{fill:#848484;}
	.st2{fill:#535353;}
</style>
<image style="overflow:visible;" width="1920" height="1080" xlink:href="4430C109.jpg"  transform="matrix(0.9999 0 0 0.9999 -462 -5)">
</image>
<rect x="-465" y="-7" class="st0" width="1931" height="1088"/>
<path class="st1" d="M269,1084c0,0,392-59,392-297c-2-273,67-495,431-517S1466,2,1466,2v1079L269,1084z"/>
<path class="st2" d="M292,1080c0,0,179-17,309-157c63-73,54.9-138.1,62-230c7-90,18-118,18-118s114,123,136,279s10,229,10,229
	L292,1080z"/>
</svg>
