<?xml version="1.0" encoding="utf-8"?>
<!-- Generator: Adobe Illustrator 23.0.1, SVG Export Plug-In . SVG Version: 6.00 Build 0)  -->
<svg version="1.1" xmlns="http://www.w3.org/2000/svg" xmlns:xlink="http://www.w3.org/1999/xlink" x="0px" y="0px"
	 viewBox="0 0 1920 1080" style="enable-background:new 0 0 1920 1080;" xml:space="preserve">
<style type="text/css">
	.st0{fill:#9B2FDA;}
	.st1{fill:#4B1A6B;}
	.st2{fill:#3D145A;}
	.st3{fill:#FF5EFF;}
</style>
<g id="Camada_3">
	<rect x="-3" y="-2" class="st0" width="1931" height="1088"/>
</g>
<g id="Camada_2">
	<path class="st1" d="M731,1089c0,0,392-59,392-297c-2-273,67-495,431-517S1928,7,1928,7v1079L731,1089z"/>
</g>
<g id="Camada_4">
	<path class="st2" d="M754,1085c0,0,179-17,309-157c63-73,54.9-138.1,62-230c7-90,18-118,18-118s114,123,136,279s10,229,10,229
		L754,1085z"/>
</g>
<g id="Camada_6">
	<path class="st3" d="M580,264.3L344.3,421.2c-17.1,11.4-21.8,34.7-10.4,51.8l323.2,485.3c11.4,17.1,34.7,21.8,51.8,10.4
		l235.6-156.9c17.1-11.4,21.8-34.7,10.4-51.8L631.8,274.7C620.4,257.6,597.1,252.9,580,264.3z M912.5,737.3
		c3.2,4.8,1.9,11.4-2.9,14.6L666.5,913.8c-4.8,3.2-11.4,1.9-14.6-2.9L352.4,461.2c-3.2-4.8-1.9-11.4,2.9-14.6l243.1-161.9
		c4.8-3.2,11.4-1.9,14.6,2.9L912.5,737.3z"/>
	<path class="st3" d="M230.1,573.2l-98.3,202.4c-7.1,14.7-0.9,32.6,13.8,39.7l416.8,202.4c14.7,7.1,32.6,0.9,39.7-13.8l98.3-202.4
		c7.1-14.7,0.9-32.6-13.8-39.7L269.7,559.4C255.1,552.3,237.2,558.5,230.1,573.2z M648.3,763.4c4.1,2,5.9,7,3.9,11.2L550.8,983.3
		c-2,4.1-7,5.9-11.2,3.9L153.4,799.7c-4.1-2-5.9-7-3.9-11.2l101.4-208.8c2-4.1,7-5.9,11.2-3.9L648.3,763.4z"/>
	<path class="st3" d="M1851.3,565.3l-163.2-154.8c-11.9-11.2-30.8-10.7-42,1.1l-318.9,336.2c-11.2,11.9-10.7,30.8,1.1,42
		l163.2,154.8c11.9,11.2,30.8,10.7,42-1.1l318.9-336.2C1863.7,595.4,1863.2,576.5,1851.3,565.3z M1543.6,906.5
		c-3.2,3.3-8.5,3.5-11.8,0.3l-168.4-159.7c-3.3-3.2-3.5-8.5-0.3-11.8l295.5-311.5c3.2-3.3,8.5-3.5,11.8-0.3l168.4,159.7
		c3.3,3.2,3.5,8.5,0.3,11.8L1543.6,906.5z"/>
	<path class="st3" d="M1538.8,286.4l-268.2-90.8c-19.5-6.6-40.8,3.9-47.4,23.4l-187,552.3c-6.6,19.5,3.9,40.8,23.4,47.4l268.2,90.8
		c19.5,6.6,40.8-3.9,47.4-23.4l187-552.3C1568.9,314.3,1558.3,293,1538.8,286.4z M1367.3,838.5c-1.9,5.5-7.9,8.5-13.3,6.6
		l-276.7-93.7c-5.5-1.9-8.5-7.9-6.6-13.3l173.3-511.8c1.9-5.5,7.9-8.5,13.3-6.6l276.7,93.7c5.5,1.9,8.5,7.9,6.6,13.3L1367.3,838.5z"
		/>
	<path class="st3" d="M1042.6,79.5l-361.7,84.4c-26.3,6.1-42.7,32.6-36.6,58.9l173.8,745c6.1,26.3,32.6,42.7,58.9,36.6l361.7-84.4
		c26.3-6.1,42.7-32.6,36.6-58.9l-173.8-745C1095.4,89.9,1068.9,73.4,1042.6,79.5z M1233.6,813.7c1.7,7.4-2.9,14.9-10.3,16.6
		l-373.2,87.1c-7.4,1.7-14.9-2.9-16.6-10.3L672.4,216.7c-1.7-7.4,2.9-14.9,10.3-16.6l373.2-87.1c7.4-1.7,14.9,2.9,16.6,10.3
		L1233.6,813.7z"/>
</g>
</svg>
