<?xml version="1.0" encoding="utf-8"?>
<!-- Generator: Adobe Illustrator 23.0.1, SVG Export Plug-In . SVG Version: 6.00 Build 0)  -->
<svg version="1.1" xmlns="http://www.w3.org/2000/svg" xmlns:xlink="http://www.w3.org/1999/xlink" x="0px" y="0px"
	 viewBox="0 0 1920 1080" style="enable-background:new 0 0 1920 1080;" xml:space="preserve">
<style type="text/css">
	.st0{fill:#9B2FDA;}
	.st1{fill:#4B1A6B;}
	.st2{fill:#3D145A;}
	.st3{fill:#FF5EFF;}
</style>
<g id="Camada_1">
		<image style="overflow:visible;" width="1920" height="1080" xlink:href="5FEB6F0.jpg"  transform="matrix(0.9999 0 0 0.9999 0 0)">
	</image>
</g>
<g id="Camada_3">
	<rect x="-3" y="-2" class="st0" width="1931" height="1088"/>
</g>
<g id="Camada_2">
	<path class="st1" d="M731,1089c0,0,392-59,392-297c-2-273,67-495,431-517S1928,7,1928,7v1079L731,1089z"/>
</g>
<g id="Camada_4">
	<path class="st2" d="M754,1085c0,0,179-17,309-157c63-73,54.9-138.1,62-230c7-90,18-118,18-118s114,123,136,279s10,229,10,229
		L754,1085z"/>
</g>
<g id="Camada_8">
	<g>
		<path class="st3" d="M1583,414.3l-87.3-238.8l3.4-2.7l-181.9-36.3l-191.9,152.7l2.9,0.6l86.5,236.7l0.6,1.6l178.2,38.1L1583,414.3
			z M1575.9,412.3l-181.8,145.8L1346,426.5l0.1-0.1l-0.3-0.4l-37-101.3l181.9-145.3L1575.9,412.3z M1318.8,142.9l166.5,33.2
			l-181.9,145.3L1138.9,286L1318.8,142.9z M1135.1,291.3l168.4,36.3l35.4,96.9l-6,4.8l3.7,4.7l4.5-3.6l46.9,128.5l-168.2-36
			L1135.1,291.3z"/>
		
			<rect x="1319.5" y="151.3" transform="matrix(0.9392 -0.3432 0.3432 0.9392 27.3829 463.3332)" class="st3" width="6" height="6"/>
		<rect x="1335" y="190.5" transform="matrix(0.9392 -0.3433 0.3433 0.9392 13.8412 471.2692)" class="st3" width="6" height="12"/>
		
			<rect x="1351.4" y="235.6" transform="matrix(0.9392 -0.3433 0.3433 0.9392 -0.6206 479.6568)" class="st3" width="6" height="12"/>
		<rect x="1343.2" y="213.1" transform="matrix(0.9392 -0.3433 0.3433 0.9392 6.6103 475.463)" class="st3" width="6" height="12"/>
		
			<rect x="1359.7" y="258.1" transform="matrix(0.9392 -0.3433 0.3433 0.9392 -7.8516 483.8504)" class="st3" width="6" height="12"/>
		
			<rect x="1376.1" y="303.1" transform="matrix(0.9392 -0.3433 0.3433 0.9392 -22.3135 492.2379)" class="st3" width="6" height="12"/>
		
			<rect x="1367.9" y="280.6" transform="matrix(0.9392 -0.3433 0.3433 0.9392 -15.0907 487.9882)" class="st3" width="6" height="12"/>
		
			<rect x="1392.6" y="348.2" transform="matrix(0.9392 -0.3433 0.3433 0.9392 -36.7754 500.6254)" class="st3" width="6" height="12"/>
		<rect x="1326.7" y="168" transform="matrix(0.9392 -0.3433 0.3433 0.9392 21.0722 467.0754)" class="st3" width="6" height="12"/>
		
			<rect x="1384.4" y="325.7" transform="matrix(0.9392 -0.3433 0.3433 0.9392 -29.5445 496.4316)" class="st3" width="6" height="12"/>
		<polygon class="st3" points="1401.6,379.3 1409.1,380.8 1410.3,375 1406.1,374.1 1404.6,370 1398.9,372.1 		"/>
		
			<rect x="1447.8" y="380.3" transform="matrix(0.2005 -0.9797 0.9797 0.2005 781.4583 1730.2415)" class="st3" width="6" height="12"/>
		
			<rect x="1424.3" y="375.5" transform="matrix(0.2005 -0.9797 0.9797 0.2005 767.3991 1703.3757)" class="st3" width="6" height="12"/>
		
			<rect x="1541.9" y="399.6" transform="matrix(0.2005 -0.9797 0.9797 0.2005 837.7485 1837.7307)" class="st3" width="6" height="12"/>
		
			<rect x="1471.3" y="385.1" transform="matrix(0.2005 -0.9797 0.9797 0.2005 795.5615 1757.1289)" class="st3" width="6" height="12"/>
		
			<rect x="1518.4" y="394.8" transform="matrix(0.2005 -0.9797 0.9797 0.2005 823.6678 1810.8541)" class="st3" width="6" height="12"/>
		<rect x="1494.8" y="390" transform="matrix(0.2005 -0.9797 0.9797 0.2005 809.643 1784.006)" class="st3" width="6" height="12"/>
		<rect x="1562.4" y="406.8" transform="matrix(0.2004 -0.9797 0.9797 0.2004 850.1749 1861.3)" class="st3" width="6" height="6"/>
		<rect x="1224.4" y="514" transform="matrix(0.7825 -0.6227 0.6227 0.7825 -54.957 876.7556)" class="st3" width="6" height="6"/>
		
			<rect x="1371.6" y="394.5" transform="matrix(0.7825 -0.6227 0.6227 0.7825 52.1399 944.2921)" class="st3" width="12.2" height="6"/>
		
			<rect x="1295.2" y="455.2" transform="matrix(0.7825 -0.6227 0.6227 0.7825 -2.272 909.9793)" class="st3" width="12.2" height="6"/>
		
			<rect x="1257.1" y="485.6" transform="matrix(0.7825 -0.6227 0.6227 0.7825 -29.4779 892.8231)" class="st3" width="12.2" height="6"/>
		
			<rect x="1276.2" y="470.4" transform="matrix(0.7825 -0.6227 0.6227 0.7825 -15.875 901.4012)" class="st3" width="12.2" height="6"/>
		
			<rect x="1238" y="500.8" transform="matrix(0.7825 -0.6227 0.6227 0.7825 -43.0808 884.2449)" class="st3" width="12.2" height="6"/>
		
			<rect x="1314.3" y="440.1" transform="matrix(0.7825 -0.6227 0.6227 0.7825 11.3309 918.5574)" class="st3" width="12.2" height="6"/>
		
			<rect x="1352.5" y="409.7" transform="matrix(0.7825 -0.6227 0.6227 0.7825 38.5368 935.7137)" class="st3" width="12.2" height="6"/>
		
			<rect x="1391.3" y="381.3" transform="matrix(0.7825 -0.6227 0.6227 0.7825 64.0157 951.7809)" class="st3" width="6" height="6"/>
		<path class="st3" d="M588.5,694.6L480.1,727l-57.8,139.1L539.8,969l-1.7,4l111.6-35l59.5-141.7l-3.5,1L588.5,694.6z M699,799.3
			l-98.9,29.3l-46.6-40.8l2.3-5.4l-5.5-2.3l-1.5,3.6l-60.4-53l98.7-29.5L699,799.3z M429.5,864.4l54-130l62.9,55.1l-0.4,0.9l2.6,1.1
			l47.9,41.9l-54.2,129.8L429.5,864.4z M645.3,933.1l-96.7,30.3l34-81.3l6.8,5.9l4-4.5l-8.3-7.2l17.6-42.1l96.2-28.6L645.3,933.1z"
			/>
		
			<rect x="636.9" y="925.2" transform="matrix(0.6589 -0.7522 0.7522 0.6589 -479.9882 797.9919)" class="st3" width="6" height="6"/>
		
			<rect x="546.7" y="843.1" transform="matrix(0.6589 -0.7522 0.7522 0.6589 -451.3275 703.2164)" class="st3" width="6" height="12.3"/>
		
			<rect x="565.2" y="859.3" transform="matrix(0.6589 -0.7523 0.7523 0.6589 -457.2162 722.7119)" class="st3" width="6" height="12.3"/>
		
			<rect x="620.8" y="908" transform="matrix(0.6589 -0.7522 0.7522 0.6589 -474.8612 781.0459)" class="st3" width="6" height="12.3"/>
		
			<rect x="602.2" y="891.7" transform="matrix(0.6589 -0.7522 0.7522 0.6589 -468.9778 761.5885)" class="st3" width="6" height="12.3"/>
		<polygon class="st3" points="524.7,832 526.5,837.8 530.6,836.5 533.8,839.3 537.8,834.8 532,829.8 		"/>
		
			<rect x="500.4" y="837.7" transform="matrix(0.9556 -0.2947 0.2947 0.9556 -225.2415 186.7286)" class="st3" width="13" height="6"/>
		
			<rect x="475.5" y="845.3" transform="matrix(0.9556 -0.2947 0.2947 0.9556 -228.6119 179.7298)" class="st3" width="13" height="6"/>
		
			<rect x="450.6" y="853" transform="matrix(0.9556 -0.2947 0.2947 0.9556 -231.9823 172.7309)" class="st3" width="13" height="6"/>
		
			<rect x="432.5" y="859.7" transform="matrix(0.9556 -0.2947 0.2947 0.9556 -234.8981 166.6762)" class="st3" width="6" height="6"/>
		
			<rect x="581.5" y="703.5" transform="matrix(0.3871 -0.9221 0.9221 0.3871 -293.1583 971.9849)" class="st3" width="6" height="6"/>
		
			<rect x="536.7" y="804" transform="matrix(0.3872 -0.922 0.922 0.3872 -411.7304 994.4965)" class="st3" width="11.2" height="6"/>
		
			<rect x="571.3" y="721.7" transform="matrix(0.3873 -0.9219 0.9219 0.3873 -314.6982 975.8248)" class="st3" width="11.2" height="6"/>
		
			<rect x="562.6" y="742.3" transform="matrix(0.3873 -0.9219 0.9219 0.3873 -338.9618 980.4636)" class="st3" width="11.2" height="6"/>
		
			<rect x="554" y="762.8" transform="matrix(0.3873 -0.9219 0.9219 0.3873 -363.2255 985.1031)" class="st3" width="11.2" height="6"/>
		
			<rect x="531.6" y="822.2" transform="matrix(0.3871 -0.9221 0.9221 0.3871 -433.1604 998.7741)" class="st3" width="6" height="6"/>
		<path class="st3" d="M1117.2,654.1c-17.5-23.8-37.4-35-56-31.6c-1.8,0.3-3.6,0.8-5.3,1.4l-175.4,33.7c-0.7,0.1-16.5,3.8-29.3,23.3
			c-16.8,25.5-20.6,64.7-11.2,116.5c11.7,64.4,35.1,95.8,52.8,110.8c19.5,16.6,36.2,17.5,36.9,17.5l0.3,0l176.1-31.8l0-0.2
			c1.4-0.1,2.8-0.2,4.1-0.5c18.6-3.4,33.2-20.8,41.3-49.2c7.9-27.7,8.7-62.6,2.2-98.4C1147.3,709.7,1134.3,677.2,1117.2,654.1z
			 M929.7,919.8c-4.6-0.4-63-8.3-83.8-123.4c-11.2-62.2-0.7-95.1,10-111.7c11.5-17.8,25.8-21.2,25.8-21.2l23.7-4.6l-1,3.8
			c0,0,4.1,1.2,10.2,4.7l3-5.2c-3.4-1.9-6.2-3.2-8.2-4l131.9-25.4c-9.2,8.5-16.5,21.7-21.4,38.9c-7.9,27.7-8.7,62.6-2.2,98.4
			c6.5,35.8,19.4,68.3,36.5,91.4c11,14.9,22.8,24.8,34.8,29.4l-137.1,24.8c0.4-0.4,0.8-0.8,1.3-1.4l-4.4-4.1c-1.2,1.3-2,2-2,2
			l3.4,3.8L929.7,919.8z M1145.8,842.3c-7.4,26.1-20.4,42-36.6,45c-16.2,2.9-34-7.5-50.1-29.3c-16.5-22.4-29.1-54-35.4-88.9
			c-6.3-34.9-5.6-68.9,2-95.7c7.4-26.1,20.4-42,36.6-45c1.8-0.3,3.6-0.5,5.4-0.5c14.7,0,30.3,10.4,44.6,29.8
			c16.5,22.4,29.1,54,35.4,88.9C1154.2,781.5,1153.4,815.5,1145.8,842.3z"/>
		<path class="st3" d="M975,858.5l5.8,1.5c1-3.9,1.8-7.9,2.5-12l-5.9-1C976.7,850.9,975.9,854.8,975,858.5z"/>
		<path class="st3" d="M979,835.3l6,0.6c0.4-4,0.7-8.1,0.9-12.2l-6-0.2C979.7,827.5,979.4,831.5,979,835.3z"/>
		<path class="st3" d="M956.1,901.2l4.9,3.4c2.3-3.3,4.5-6.8,6.5-10.5l-5.3-2.9C960.3,894.8,958.3,898.1,956.1,901.2z"/>
		<path class="st3" d="M980,811.7l6-0.1c-0.1-4-0.3-8.1-0.6-12.1l-6,0.4C979.7,803.9,979.9,807.9,980,811.7z"/>
		<path class="st3" d="M967.4,880.8l5.5,2.4c1.6-3.7,3.1-7.5,4.4-11.4l-5.7-1.9C970.4,873.6,969,877.2,967.4,880.8z"/>
		<path class="st3" d="M978.3,788.1l6-0.7c-0.5-3.9-1.1-8-1.8-12l-5.9,1C977.2,780.3,977.8,784.3,978.3,788.1z"/>
		<path class="st3" d="M968.1,741.9l5.7-1.9c-1.3-3.9-2.7-7.8-4.1-11.5l-5.6,2.2C965.5,734.4,966.9,738.1,968.1,741.9z"/>
		<path class="st3" d="M974.3,764.8l5.9-1.3c-0.9-4-1.8-8-2.8-11.8l-5.8,1.6C972.5,757,973.4,760.8,974.3,764.8z"/>
		<path class="st3" d="M964.9,717.4c-1.8-3.7-3.6-7.4-5.6-10.9l-5.2,2.9c1.9,3.3,3.7,6.9,5.4,10.5L964.9,717.4z"/>
		<path class="st3" d="M924.3,673.8c3,2.3,5.9,4.9,8.7,7.7l4.2-4.3c-3-2.9-6.1-5.7-9.3-8.1L924.3,673.8z"/>
		<path class="st3" d="M952.9,696.1c-2.3-3.4-4.8-6.7-7.3-9.8l-4.6,3.8c2.4,2.9,4.8,6.1,7,9.4L952.9,696.1z"/>
		<path class="st3" d="M1351,926.8l158.1-1.2l36.6-221.3l-215.7,63.4L1351,926.8z M1504,919.6l-2.8,0l2.9-3.3l-1.5-1.3l-4,4.5
			l0.1,0.1l-139.7,1l178.3-202.4L1504,919.6z M1537.7,715.5l-2.2-2l2.7-0.8L1537.7,715.5z M1532.8,714.4l-112.8,128l-7.5-6.6l-4,4.5
			l7.5,6.6l-60.5,68.7l-18.3-138.1l8.2,7.3l4-4.5l-9-7.9l-3.4,3.8l-0.5-4.1L1532.8,714.4z"/>
		
			<rect x="1466" y="883.6" transform="matrix(0.6611 -0.7503 0.7503 0.6611 -169.6158 1403.5869)" class="st3" width="6" height="12"/>
		
			<rect x="1448" y="867.7" transform="matrix(0.6611 -0.7503 0.7503 0.6611 -163.8116 1384.7015)" class="st3" width="6" height="12"/>
		
			<rect x="1358" y="788.4" transform="matrix(0.6612 -0.7502 0.7502 0.6612 -134.8484 1290.1005)" class="st3" width="6" height="12"/>
		
			<rect x="1484" y="899.4" transform="matrix(0.6611 -0.7503 0.7503 0.6611 -175.4196 1422.4729)" class="st3" width="6" height="12"/>
		
			<rect x="1394" y="820.1" transform="matrix(0.6612 -0.7502 0.7502 0.6612 -146.43 1327.9497)" class="st3" width="6" height="12"/>
		
			<rect x="1376" y="804.2" transform="matrix(0.6612 -0.7502 0.7502 0.6612 -140.626 1309.0652)" class="st3" width="6" height="12"/>
		
			<rect x="1430" y="851.8" transform="matrix(0.6611 -0.7503 0.7503 0.6611 -158.0077 1365.8156)" class="st3" width="6" height="12"/>
		<path class="st3" d="M988.4,542.6l1.1-137.4l-191.7-34.7l52.2,188.2L988.4,542.6z M807.6,383.5l169.8,154.3l-117.6,13.7l6.8-7.4
			l-4.4-4L854,549l3.2,2.9l-2.8,0.3L807.6,383.5z M982.4,534.4l-58.6-53.3l7.3-8l-4.4-4l-7.3,8l-107.7-97.9l171.7,31.1L982.4,534.4z
			 M807.6,378.4l-1.1,1.2l-0.4-1.4L807.6,378.4z"/>
		
			<rect x="902.7" y="490.3" transform="matrix(0.6727 -0.7399 0.7399 0.6727 -67.5565 833.7953)" class="st3" width="12" height="6"/>
		<rect x="886.5" y="508" transform="matrix(0.6726 -0.74 0.74 0.6726 -85.9462 827.7705)" class="st3" width="12" height="6"/>
		
			<rect x="870.4" y="525.8" transform="matrix(0.6727 -0.7399 0.7399 0.6727 -104.405 821.5313)" class="st3" width="12" height="6"/>
		<rect x="935" y="454.7" transform="matrix(0.6727 -0.7399 0.7399 0.6727 -30.708 846.0594)" class="st3" width="12" height="6"/>
		<rect x="967.3" y="419.2" transform="matrix(0.6727 -0.7399 0.7399 0.6727 6.1403 858.3234)" class="st3" width="12" height="6"/>
		<rect x="951.1" y="437" transform="matrix(0.6727 -0.74 0.74 0.6727 -12.2615 852.2441)" class="st3" width="12" height="6"/>
	</g>
</g>
</svg>
